# xmcd
#
# Track frame offsets:
#	150
#	14623
#	28734
#	43736
#	58533
#	73720
#	88347
#	104264
#	119305
#	133446
#	146799
#
# Disc length: 2159 seconds
#
# Revision: 0
# Processed by: cddbd v1.4PL0 Copyright (c) Steve Scherf et al.
# Submitted via: EasyCDDAExtractor 4.6.9.1
#
DISCID=aa086d0b
DTITLE=Kjarkas - Que No Muera La Tradicion Vol 4
DYEAR=1900
DGENRE=Folklore
TTITLE0=Odiame
TTITLE1=Seleccion De Bailecitos
TTITLE2=Quejas Del Alma
TTITLE3=Pretenciosa
TTITLE4=Si Hoy Te Vas
TTITLE5=Ingratitud
TTITLE6=Cristina
TTITLE7=Para Que
TTITLE8=Seleccion De Bailecitos 2
TTITLE9=Seleccion de Bailecitos 3
TTITLE10=Olvidate De Mi
EXTD=
EXTT0=
EXTT1=
EXTT2=
EXTT3=
EXTT4=
EXTT5=
EXTT6=
EXTT7=
EXTT8=
EXTT9=
EXTT10=
PLAYORDER=
